<svg width="65" height="60" viewBox="0 0 65 60" fill="none" xmlns="http://www.w3.org/2000/svg">
<path d="M1.95973 17.5297C0.142395 18.7381 -0.922764 21.2972 1.0851 24.357C3.09296 27.4167 31.7784 48.0703 32.8303 48.6438C33.8823 49.2172 34.9347 49.3127 37.6105 47.3053C40.2883 45.297 62.659 29.6099 63.2362 29.1381C64.1548 28.3878 64.3841 26.5563 63.2362 25.6959C63.2362 25.6959 36.135 44.628 35.2476 45.393C34.3602 46.1579 32.9797 44.915 33.2393 43.2896C33.4998 41.6642 33.6908 41.4727 37.133 38.9864C40.5753 36.5001 60.0923 22.6928 60.9778 22.0825C61.9805 21.3913 62.0047 20.1696 60.3618 19.0889C58.0783 17.5869 33.4019 1.20436 32.576 0.630892C31.7482 0.0574188 30.6031 -0.464522 28.8822 0.682897C27.1613 1.83079 5.29845 15.3091 1.95973 17.5297Z" fill="url(#paint0_linear_37_9654)"/>
<path d="M32.8304 50.6586C32.1402 50.2818 19.554 41.2613 10.412 34.2378V48.8819C10.4045 59.5718 42.6688 65.2833 53.3582 52.1422V38.1457C46.7919 42.777 39.1112 48.195 37.6106 49.3197C34.9347 51.3276 33.8824 51.2321 32.8304 50.6586Z" fill="url(#paint1_linear_37_9654)"/>
<defs>
<linearGradient id="paint0_linear_37_9654" x1="32.0068" y1="0" x2="32.0068" y2="49.0017" gradientUnits="userSpaceOnUse">
<stop stop-color="#0087B3"/>
<stop offset="1" stop-color="#0B3A4B"/>
</linearGradient>
<linearGradient id="paint1_linear_37_9654" x1="31.8851" y1="34.2378" x2="31.8851" y2="59.7546" gradientUnits="userSpaceOnUse">
<stop stop-color="#0087B3"/>
<stop offset="1" stop-color="#0B3A4B"/>
</linearGradient>
</defs>
</svg>
