<svg width="89" height="84" viewBox="0 0 89 84" fill="none" xmlns="http://www.w3.org/2000/svg">
<path d="M2.70898 24.4384C0.196836 26.1231 -1.27556 29.6908 1.49996 33.9565C4.27548 38.2222 43.9281 67.0157 45.3822 67.8152C46.8363 68.6147 48.291 68.7478 51.99 65.9493C55.6915 63.1494 86.615 41.2798 87.4129 40.622C88.6827 39.576 88.9997 37.0227 87.4129 35.8231C87.4129 35.8231 49.9503 62.2168 48.7237 63.2832C47.497 64.3497 45.5887 62.6169 45.9475 60.3509C46.3076 58.0849 46.5716 57.818 51.3299 54.3518C56.0882 50.8855 83.067 31.6365 84.2911 30.7856C85.6772 29.822 85.7105 28.1189 83.4395 26.6122C80.283 24.5182 46.1723 1.67903 45.0306 0.879538C43.8863 0.0800487 42.3034 -0.647599 39.9246 0.95204C37.5458 2.55234 7.32417 21.3427 2.70898 24.4384Z" fill="white"/>
<path d="M45.3821 70.624C44.4279 70.0987 27.0298 57.5231 14.3926 47.7314V68.1471C14.3821 83.05 58.9819 91.0126 73.7581 72.6923V53.1796C64.6813 59.6361 54.0641 67.1894 51.9898 68.7574C48.2909 71.5566 46.8361 71.4235 45.3821 70.624Z" fill="white"/>
</svg>
